<?xml version="1.0" encoding="utf-8"?>
<!-- Generator: Adobe Illustrator 24.0.2, SVG Export Plug-In . SVG Version: 6.00 Build 0)  -->
<svg version="1.1" id="livetype" xmlns="http://www.w3.org/2000/svg" xmlns:xlink="http://www.w3.org/1999/xlink" x="0px" y="0px"
	 viewBox="0 0 190 60" style="enable-background:new 0 0 190 60;" xml:space="preserve">
<style type="text/css">
	.st0{fill:#A6A6A6;}
	.st1{fill:#FFFFFF;}
</style>
<title>Download_on_the_App_Store_Badge_FR_RGB_blk_100517</title>
<g>
	<g>
		<path class="st0" d="M175.6,0H14.3c-0.6,0-1.1,0-1.7,0c-0.5,0-0.9,0-1.4,0c-1.1,0-2,0.2-3,0.3s-2,0.5-2.9,0.9S3.8,2.3,3,3
			S1.7,4.5,1.2,5.4S0.5,7.2,0.3,8.3s-0.3,2-0.3,3c0,0.5,0,0.9,0,1.4v34.7c0,0.5,0,0.9,0,1.4c0,1.1,0.2,2,0.3,3s0.5,2,0.9,2.9
			C1.7,55.5,2.3,56.2,3,57s1.5,1.4,2.4,1.8c0.9,0.5,1.8,0.8,2.9,0.9c1.1,0.2,2,0.3,3,0.3c0.5,0,0.9,0,1.4,0c0.6,0,1.1,0,1.7,0h161.3
			c0.6,0,1.1,0,1.7,0c0.5,0,0.9,0,1.4,0c1.1,0,2-0.2,3-0.3c1.1-0.2,2-0.5,2.9-0.9c0.9-0.5,1.7-1.1,2.4-1.8s1.4-1.5,1.8-2.4
			c0.5-0.9,0.8-1.8,0.9-2.9c0.2-1.1,0.3-2,0.3-3c0-0.5,0-0.9,0-1.4c0-0.6,0-1.1,0-1.7V14.3c0-0.6,0-1.1,0-1.7c0-0.5,0-0.9,0-1.4
			c0-1.1-0.2-2-0.3-3c-0.2-1.1-0.5-2-0.9-2.9c-0.9-1.8-2.4-3.3-4.2-4.2c-0.9-0.5-1.8-0.8-2.9-0.9c-1.1-0.2-2-0.3-3-0.3
			c-0.5,0-0.9,0-1.4,0C176.7,0,176.2,0,175.6,0L175.6,0z"/>
		<path class="st1" d="M12.7,58.8c-0.5,0-0.9,0-1.4,0c-0.9,0-1.8-0.2-2.9-0.3c-0.9-0.2-1.7-0.5-2.6-0.8c-0.8-0.5-1.5-0.9-2.1-1.5
			s-1.2-1.4-1.5-2.1c-0.5-0.8-0.6-1.7-0.8-2.6c-0.2-0.9-0.3-1.8-0.3-2.9c0-0.3,0-1.4,0-1.4V12.7c0,0,0-1.1,0-1.4
			c0-0.9,0.2-1.8,0.3-2.9C1.7,7.7,2,6.8,2.4,6s0.9-1.5,1.5-2.1s1.4-1,2.1-1.5s1.7-0.8,2.4-0.9c0.9-0.2,1.8-0.3,2.9-0.3h1.4h164.6
			h1.4c0.9,0,1.8,0.2,2.9,0.3c0.9,0.2,1.7,0.5,2.6,0.8c1.5,0.8,2.9,2.1,3.6,3.6c0.5,0.8,0.6,1.7,0.8,2.4c0.2,0.9,0.3,1.8,0.3,2.9
			c0,0.5,0,0.9,0,1.4c0,0.6,0,1.1,0,1.7v31.4c0,0.6,0,1.1,0,1.7c0,0.5,0,0.9,0,1.4c0,0.9-0.2,1.8-0.3,2.7c-0.2,0.9-0.5,1.7-0.8,2.6
			c-0.5,0.8-0.9,1.5-1.5,2.1s-1.4,1.2-2.1,1.5c-0.8,0.5-1.7,0.6-2.6,0.8c-0.9,0.2-1.8,0.3-2.9,0.3c-0.5,0-0.9,0-1.4,0h-1.7
			L12.7,58.8z"/>
	</g>
	<g>
		<g id="_Group_">
			<g id="_Group_2">
				<g id="_Group_3">
					<path id="_Path_" d="M37.2,30.5c0-2.6,1.4-5,3.5-6.2c-1.4-2-3.6-3.2-6-3.2c-2.6-0.3-5,1.5-6.2,1.5c-1.4,0-3.3-1.5-5.4-1.5
						c-2.9,0.2-5.4,1.7-6.8,4.1c-2.9,5-0.8,12.4,2.1,16.4c1.4,2,3,4.2,5.1,4.1s2.9-1.4,5.4-1.4s3.2,1.4,5.4,1.2c2.3,0,3.6-2,5-4.1
						c1.1-1.4,1.8-3,2.3-4.7C38.9,36,37.2,33.3,37.2,30.5z"/>
					<path id="_Path_2" d="M33.2,18.4c1.2-1.5,1.8-3.3,1.7-5.3c-1.8,0.2-3.6,1.1-4.8,2.6c-1.2,1.4-1.8,3.2-1.7,5
						C30.2,20.7,32,19.7,33.2,18.4z"/>
				</g>
			</g>
		</g>
		<g id="_Group_4">
			<g>
				<path d="M53.5,22v-7.7h-2.9v-1.2h7.1v1.2h-2.9V22H53.5z"/>
				<path d="M64.2,20.2c-0.3,1.2-1.7,2.1-2.9,2c-1.7,0-3.2-1.4-3.2-3c0-0.2,0-0.3,0-0.5c-0.3-1.7,0.9-3.3,2.7-3.5c0.2,0,0.3,0,0.5,0
					c1.8,0,3,1.4,3,3.5v0.5h-4.8l0,0c-0.2,1.1,0.6,1.8,1.7,2h0.2c0.6,0.2,1.4-0.3,1.7-0.8L64.2,20.2z M59.5,18.1H63
					c0-0.9-0.6-1.7-1.5-1.8h-0.2C60.3,16.3,59.5,17,59.5,18.1L59.5,18.1L59.5,18.1z M60.5,14.2l1.5-2.1h1.5l-1.7,2.1
					C61.8,14.2,60.5,14.2,60.5,14.2z"/>
				<path d="M66.2,12.7h1.4V22h-1.4V12.7z"/>
				<path d="M75.4,20.2c-0.3,1.2-1.7,2.1-2.9,2c-1.7,0-3.2-1.4-3.2-3c0-0.2,0-0.3,0-0.5C69,17,70.2,15.4,72,15.2c0.2,0,0.3,0,0.5,0
					c1.8,0,3,1.4,3,3.5v0.5h-4.8l0,0c-0.2,1.1,0.6,1.8,1.7,2h0.2c0.6,0.2,1.4-0.3,1.7-0.8L75.4,20.2z M70.7,18.1h3.5
					c0-0.9-0.6-1.7-1.5-1.8h-0.2C71.5,16.3,70.7,17,70.7,18.1L70.7,18.1z M71.6,14.2l1.5-2.1h1.5l-1.8,2.1
					C72.8,14.2,71.6,14.2,71.6,14.2z"/>
				<path d="M81.7,17.5c-0.2-0.8-0.9-1.2-1.7-1.2c-1.1,0-1.8,0.9-1.8,2.3c0,1.5,0.8,2.4,1.8,2.4c0.8,0.2,1.4-0.5,1.7-1.1h1.2
					c-0.2,1.4-1.5,2.4-2.9,2.3c-1.7,0-3.2-1.4-3.2-3c0-0.2,0-0.3,0-0.5c-0.2-1.7,0.9-3.2,2.7-3.5c0.2,0,0.3,0,0.5,0
					c1.5-0.2,2.7,0.9,2.9,2.4L81.7,17.5z"/>
				<path d="M84.7,12.7h1.4v3.8h0.2c0.3-0.8,1.2-1.4,2.1-1.2c1.2,0,2.3,0.9,2.4,2.1c0,0.2,0,0.3,0,0.5v4.4h-1.4v-4.1
					c0-1.1-0.5-1.7-1.5-1.7c-0.9,0-1.7,0.6-1.7,1.5c0,0.2,0,0.2,0,0.3v3.9h-1.4L84.7,12.7z"/>
				<path d="M92.3,20.2c0-1.2,0.9-2,2.6-2l1.8-0.2v-0.6c0-0.8-0.5-1.1-1.4-1.1c-0.8,0-1.2,0.3-1.4,0.8h-1.4c0.2-1.2,1.2-2,2.7-2
					c1.7,0,2.7,0.9,2.7,2.3v4.7h-1.4V21h-0.2c-0.5,0.8-1.2,1.1-2,1.1c-1.1,0.2-2.1-0.8-2.3-1.8v-0.1H92.3z M96.6,19.6V19L95,19.1
					c-0.9,0-1.4,0.5-1.4,0.9c0,0.6,0.6,0.9,1.2,0.9C95.7,21.1,96.5,20.5,96.6,19.6L96.6,19.6L96.6,19.6z"/>
				<path d="M99.9,15.4h1.4v1.1h0.2c0.3-0.8,1.1-1.2,1.8-1.2c0.2,0,0.5,0,0.6,0v1.4c-0.3,0-0.5-0.2-0.8-0.2
					c-0.9-0.2-1.7,0.6-1.7,1.5v0.2V22H100L99.9,15.4z"/>
				<path d="M105.1,22.8h1.4c0.2,0.5,0.6,0.8,1.5,0.8c1.1,0,1.8-0.6,1.8-1.4v-1.4h-0.2c-0.5,0.8-1.2,1.2-2.1,1.2
					c-1.7,0-2.9-1.4-2.9-3.3c0-2.1,1.1-3.5,2.9-3.5c0.9,0,1.7,0.5,2.1,1.2h0.2v-1.1h1.2v6.8c0,1.5-1.2,2.6-3.2,2.6
					C106.3,24.7,105.2,24,105.1,22.8z M109.7,18.5c0-1.4-0.8-2.3-1.8-2.3c-1.2,0-1.8,0.9-1.8,2.3s0.6,2.3,1.8,2.3
					S109.7,19.9,109.7,18.5L109.7,18.5z"/>
				<path d="M118.9,20.2c-0.3,1.2-1.7,2.1-2.9,2c-1.7,0-3.2-1.4-3.2-3c0-0.2,0-0.3,0-0.5c-0.3-1.7,0.9-3.3,2.7-3.5
					c0.2,0,0.3,0,0.5,0c1.8,0,3,1.4,3,3.5v0.5h-4.8l0,0c-0.2,1.1,0.6,1.8,1.7,2h0.2c0.6,0.2,1.4-0.3,1.7-0.8L118.9,20.2z
					 M114.3,18.1h3.3c0-0.9-0.6-1.7-1.5-1.8h-0.2C115,16.3,114.3,17,114.3,18.1L114.3,18.1L114.3,18.1z"/>
				<path d="M120.8,15.4h1.4v1.1h0.2c0.3-0.8,1.1-1.2,1.8-1.2c0.2,0,0.5,0,0.6,0v1.4c-0.3,0-0.5-0.2-0.8-0.2
					c-0.9-0.2-1.7,0.6-1.7,1.5v0.2V22h-1.4L120.8,15.4L120.8,15.4z"/>
				<path d="M129.5,18.7c0-2.1,1.1-3.5,2.9-3.5c0.9,0,1.7,0.5,2.1,1.2h0.2v-3.8h1.1V22h-1.2v-1h-0.2c-0.5,0.8-1.2,1.2-2.1,1.2
					C130.6,22.2,129.5,20.8,129.5,18.7z M130.9,18.7c0,1.5,0.6,2.3,1.8,2.3c1.1,0,1.8-0.9,1.8-2.3s-0.8-2.3-1.8-2.3
					C131.5,16.4,130.9,17.3,130.9,18.7L130.9,18.7z"/>
				<path d="M137.5,20.2c0-1.2,0.9-2,2.6-2l1.8-0.2v-0.6c0-0.8-0.5-1.1-1.4-1.1c-0.8,0-1.2,0.3-1.4,0.8h-1.4c0.2-1.2,1.2-2,2.7-2
					c1.7,0,2.7,0.9,2.7,2.3v4.7h-1.4V21h-0.2c-0.5,0.8-1.2,1.1-2,1.1c-1.1,0.2-2.1-0.8-2.3-1.8C137.5,20.4,137.5,20.2,137.5,20.2z
					 M141.9,19.6V19l-1.7,0.2c-0.9,0-1.4,0.5-1.4,0.9c0,0.6,0.6,0.9,1.2,0.9C141,21.1,141.9,20.5,141.9,19.6L141.9,19.6L141.9,19.6z
					"/>
				<path d="M145.3,15.4h1.4v1.1h0.2c0.3-0.8,1.2-1.2,2-1.2c1.2-0.2,2.3,0.8,2.4,2c0,0.2,0,0.3,0,0.5V22h-1.4v-3.9
					c0-1.1-0.5-1.7-1.5-1.7c-0.9,0-1.5,0.6-1.7,1.5c0,0.2,0,0.2,0,0.3v3.9h-1.4V15.4z"/>
				<path d="M155.6,15.2c1.5,0,2.6,0.8,2.7,2h-1.2c-0.2-0.5-0.6-0.8-1.4-0.8s-1.4,0.3-1.4,0.9c0,0.5,0.3,0.6,1.1,0.8l1.1,0.3
					c1.4,0.3,2,0.9,2,1.8c0,1.2-1.2,2.1-2.9,2.1s-2.7-0.8-2.7-2h1.4c0.3,0.6,0.9,0.9,1.5,0.9c0.9,0,1.4-0.3,1.4-0.9
					c0-0.5-0.3-0.6-1.1-0.8l-1.2-0.3c-1.4-0.3-1.8-0.9-1.8-2C153,16,154.1,15.2,155.6,15.2z"/>
			</g>
		</g>
	</g>
	<g>
		<path d="M52.9,27.1h2.9v18.7h-2.9V27.1z"/>
		<path d="M58.9,33.9l1.5-6.8h2.9l-1.8,6.8H58.9z"/>
		<path d="M73.7,40.7h-7.1l-1.7,5h-3l6.8-18.5h3.2l6.8,18.7h-3L73.7,40.7z M67.4,38.4H73l-2.7-8.1h-0.2L67.4,38.4z"/>
		<path d="M93.2,39c0,4.2-2.3,6.9-5.7,6.9c-1.8,0.2-3.5-0.9-4.2-2.4l0,0v6.8h-2.9v-18h2.7v2.3l0,0c0.9-1.5,2.6-2.4,4.4-2.4
			C90.8,32.1,93.2,34.8,93.2,39z M90.3,39c0-2.7-1.4-4.5-3.6-4.5c-2.1,0-3.6,1.8-3.6,4.5s1.5,4.5,3.6,4.5S90.3,41.8,90.3,39z"/>
		<path d="M108.1,39c0,4.2-2.3,6.9-5.7,6.9c-1.8,0.2-3.5-0.9-4.2-2.4l0,0v6.8h-2.9v-18H98v2.3l0,0c0.9-1.5,2.6-2.4,4.4-2.4
			C105.8,32.1,108.1,34.8,108.1,39z M105.2,39c0-2.7-1.4-4.5-3.6-4.5c-2.1,0-3.6,1.8-3.6,4.5s1.5,4.5,3.6,4.5
			C103.7,43.6,105.2,41.8,105.2,39z"/>
		<path d="M117.9,40.6c0.2,1.8,2,3,4.5,3c2.4,0,4.1-1.2,4.1-2.9c0-1.5-1.1-2.3-3.5-2.9l-2.4-0.6c-3.5-0.8-5-2.4-5-5
			c0-3.2,2.9-5.4,6.8-5.4s6.6,2.3,6.8,5.4h-2.9c-0.2-1.8-1.7-3-3.9-3s-3.8,1.2-3.8,2.9c0,1.4,1.1,2.1,3.3,2.7l2.1,0.5
			c3.8,0.9,5.4,2.4,5.4,5.1c0,3.5-2.7,5.7-7.2,5.7c-4.1,0-6.9-2.1-7.1-5.6L117.9,40.6z"/>
		<path d="M135.4,28.9v3.2h2.6v2.3h-2.6v7.5c0,1.2,0.5,1.7,1.7,1.7c0.3,0,0.6,0,0.9,0v2.3c-0.5,0.2-1.1,0.2-1.5,0.2
			c-2.7,0-3.8-1.1-3.8-3.6v-7.8h-2v-2.3h2v-3.2h2.7L135.4,28.9L135.4,28.9z"/>
		<path d="M139.4,39c0-4.2,2.6-6.9,6.5-6.9s6.5,2.7,6.5,6.9s-2.6,6.9-6.5,6.9C142,46,139.4,43.3,139.4,39z M149.5,39
			c0-2.9-1.4-4.7-3.6-4.7s-3.6,1.8-3.6,4.7c0,3,1.4,4.7,3.6,4.7S149.5,41.9,149.5,39L149.5,39z"/>
		<path d="M154.7,32.1h2.7v2.3l0,0c0.3-1.5,1.8-2.6,3.3-2.4c0.3,0,0.6,0,0.9,0.2v2.6c-0.5-0.2-0.9-0.2-1.2-0.2
			c-1.5,0-2.9,1.2-2.9,2.7c0,0.2,0,0.3,0,0.5v8h-2.9L154.7,32.1z"/>
		<path d="M174.6,41.8c-0.3,2.4-2.7,4.2-5.9,4.2c-3.9,0-6.5-2.7-6.5-6.9s2.4-7.1,6.3-7.1c3.8,0,6.2,2.6,6.2,6.6v0.9h-9.6v0.2
			c-0.2,2,1.2,3.6,3.2,3.8c0.2,0,0.3,0,0.5,0c1.4,0.2,2.6-0.6,3.2-2L174.6,41.8z M165.1,37.7h6.8c0.2-1.8-1.2-3.3-3-3.5
			c-0.2,0-0.2,0-0.3,0C166.6,34.2,165.1,35.7,165.1,37.7L165.1,37.7z"/>
	</g>
</g>
</svg>
