<?xml version="1.0" encoding="utf-8"?>
<!-- Generator: Adobe Illustrator 24.0.2, SVG Export Plug-In . SVG Version: 6.00 Build 0)  -->
<svg version="1.1" id="livetype" xmlns="http://www.w3.org/2000/svg" xmlns:xlink="http://www.w3.org/1999/xlink" x="0px" y="0px"
	 viewBox="0 0 190 60" style="enable-background:new 0 0 190 60;" xml:space="preserve">
<style type="text/css">
	.st0{fill:#A6A6A6;}
	.st1{fill:#FFFFFF;}
	.st2{fill:#E33628;}
	.st3{fill:#F8BD00;}
	.st4{fill:#587DBD;}
	.st5{fill:#2E9F43;}
</style>
<title>Download_on_the_App_Store_Badge_FR_RGB_blk_100517</title>
<g>
	<g>
		<path class="st0" d="M175.6,0H14.3c-0.6,0-1.1,0-1.7,0c-0.5,0-0.9,0-1.4,0c-1.1,0-2,0.2-3,0.3s-2,0.5-2.9,0.9S3.8,2.3,3,3
			S1.7,4.5,1.2,5.4S0.5,7.2,0.3,8.3s-0.3,2-0.3,3c0,0.5,0,0.9,0,1.4v34.7c0,0.5,0,0.9,0,1.4c0,1.1,0.2,2,0.3,3s0.5,2,0.9,2.9
			C1.7,55.5,2.3,56.2,3,57s1.5,1.4,2.4,1.8c0.9,0.5,1.8,0.8,2.9,0.9c1.1,0.2,2,0.3,3,0.3c0.5,0,0.9,0,1.4,0c0.6,0,1.1,0,1.7,0h161.3
			c0.6,0,1.1,0,1.7,0c0.5,0,0.9,0,1.4,0c1.1,0,2-0.2,3-0.3c1.1-0.2,2-0.5,2.9-0.9c0.9-0.5,1.7-1.1,2.4-1.8s1.4-1.5,1.8-2.4
			c0.5-0.9,0.8-1.8,0.9-2.9c0.2-1.1,0.3-2,0.3-3c0-0.5,0-0.9,0-1.4c0-0.6,0-1.1,0-1.7V14.3c0-0.6,0-1.1,0-1.7c0-0.5,0-0.9,0-1.4
			c0-1.1-0.2-2-0.3-3c-0.2-1.1-0.5-2-0.9-2.9c-0.9-1.8-2.4-3.3-4.2-4.2c-0.9-0.5-1.8-0.8-2.9-0.9c-1.1-0.2-2-0.3-3-0.3
			c-0.5,0-0.9,0-1.4,0C176.7,0,176.2,0,175.6,0L175.6,0z"/>
		<path class="st1" d="M12.7,58.8c-0.5,0-0.9,0-1.4,0c-0.9,0-1.8-0.2-2.9-0.3c-0.9-0.2-1.7-0.5-2.6-0.8c-0.8-0.5-1.5-0.9-2.1-1.5
			s-1.2-1.4-1.5-2.1c-0.5-0.8-0.6-1.7-0.8-2.6c-0.2-0.9-0.3-1.8-0.3-2.9c0-0.3,0-1.4,0-1.4V12.7c0,0,0-1.1,0-1.4
			c0-0.9,0.2-1.8,0.3-2.9C1.7,7.7,2,6.8,2.4,6s0.9-1.5,1.5-2.1s1.4-1,2.1-1.5s1.7-0.8,2.4-0.9c0.9-0.2,1.8-0.3,2.9-0.3h1.4h164.6
			h1.4c0.9,0,1.8,0.2,2.9,0.3c0.9,0.2,1.7,0.5,2.6,0.8c1.5,0.8,2.9,2.1,3.6,3.6c0.5,0.8,0.6,1.7,0.8,2.4c0.2,0.9,0.3,1.8,0.3,2.9
			c0,0.5,0,0.9,0,1.4c0,0.6,0,1.1,0,1.7v31.4c0,0.6,0,1.1,0,1.7c0,0.5,0,0.9,0,1.4c0,0.9-0.2,1.8-0.3,2.7c-0.2,0.9-0.5,1.7-0.8,2.6
			c-0.5,0.8-0.9,1.5-1.5,2.1s-1.4,1.2-2.1,1.5c-0.8,0.5-1.7,0.6-2.6,0.8c-0.9,0.2-1.8,0.3-2.9,0.3c-0.5,0-0.9,0-1.4,0h-1.7
			L12.7,58.8z"/>
	</g>
</g>
<g>
	<g>
		<g>
			<path d="M96.6,33.4c-3.3,0-6,2.5-6,6c0,3.4,2.7,6,6,6s6-2.5,6-6S99.9,33.4,96.6,33.4 M96.6,43c-1.8,0-3.4-1.5-3.4-3.6
				c0-2.2,1.6-3.6,3.4-3.6s3.4,1.5,3.4,3.6C99.9,41.5,98.4,43,96.6,43 M83.4,33.4c-3.3,0-6,2.5-6,6c0,3.4,2.7,6,6,6s6-2.5,6-6
				C89.5,35.9,86.8,33.4,83.4,33.4 M83.4,43c-1.8,0-3.4-1.5-3.4-3.6c0-2.2,1.6-3.6,3.4-3.6s3.4,1.5,3.4,3.6S85.3,43,83.4,43
				 M67.9,35.2v2.5H74c-0.2,1.4-0.7,2.5-1.4,3.2c-0.9,0.9-2.3,1.9-4.7,1.9c-3.7,0-6.7-3-6.7-6.8c0-3.7,2.9-6.8,6.7-6.8
				c2,0,3.5,0.8,4.6,1.8l1.8-1.8c-1.5-1.5-3.5-2.6-6.4-2.6c-5.1,0-9.4,4.2-9.4,9.3s4.3,9.3,9.4,9.3c2.8,0,4.9-0.9,6.5-2.6
				c1.7-1.7,2.2-4,2.2-5.9c0-0.6,0-1.1-0.1-1.6L67.9,35.2L67.9,35.2z M131.6,37.2c-0.5-1.3-2-3.8-5.1-3.8s-5.6,2.4-5.6,6
				c0,3.4,2.5,6,5.9,6c2.7,0,4.3-1.7,5-2.7l-2-1.4c-0.7,1-1.6,1.7-2.9,1.7c-1.3,0-2.3-0.6-2.9-1.8l8-3.3L131.6,37.2z M123.5,39.2
				c-0.1-2.3,1.8-3.5,3.1-3.5c1,0,1.9,0.5,2.2,1.3L123.5,39.2z M117,45h2.6V27.4H117V45z M112.6,34.7L112.6,34.7
				c-0.7-0.7-1.8-1.3-3.2-1.3c-3,0-5.7,2.6-5.7,6s2.7,6,5.7,6c1.4,0,2.6-0.6,3.2-1.4h0.1v0.9c0,2.3-1.2,3.5-3.2,3.5
				c-1.6,0-2.6-1.2-3-2.1l-2.3,1c0.7,1.6,2.4,3.5,5.3,3.5c3.1,0,5.7-1.8,5.7-6.2V33.7h-2.5L112.6,34.7L112.6,34.7z M109.6,43
				c-1.8,0-3.3-1.5-3.3-3.6s1.5-3.7,3.3-3.7s3.2,1.5,3.2,3.7C112.8,41.5,111.4,43,109.6,43 M143.9,27.4h-6.3V45h2.6v-6.7h3.7
				c2.9,0,5.8-2.1,5.8-5.5C149.7,29.5,146.9,27.4,143.9,27.4 M144,35.9h-3.7v-6h3.7c2,0,3.1,1.6,3.1,3C147.1,34.2,146,35.9,144,35.9
				 M160.2,33.3c-1.9,0-3.9,0.8-4.7,2.7l2.3,1c0.5-1,1.4-1.3,2.4-1.3c1.4,0,2.7,0.8,2.8,2.3v0.2c-0.5-0.3-1.5-0.7-2.7-0.7
				c-2.5,0-5.1,1.4-5.1,4c0,2.4,2.1,3.9,4.4,3.9c1.8,0,2.7-0.8,3.4-1.7h0.1v1.4h2.5v-6.7C165.6,35.1,163.3,33.3,160.2,33.3
				 M159.9,43c-0.9,0-2.1-0.4-2.1-1.5c0-1.4,1.5-1.9,2.8-1.9c1.2,0,1.7,0.2,2.4,0.6C162.8,41.8,161.4,43,159.9,43 M174.8,33.7
				l-3,7.6h-0.1l-3.1-7.6h-2.8l4.7,10.7l-2.7,5.9h2.7l7.2-16.6C177.7,33.7,174.8,33.7,174.8,33.7z M151.2,45h2.6V27.4h-2.6V45z"/>
			<path class="st2" d="M29.8,30.1L14.8,46l0,0c0.5,1.7,2,3,3.9,3c0.7,0,1.5-0.2,2.1-0.6l0,0l16.9-9.7L29.8,30.1z"/>
			<path class="st3" d="M45,27.4L45,27.4l-7.3-4.2l-8.2,7.3l8.2,8.2l7.2-4.2c1.3-0.7,2.1-2,2.1-3.6C47.1,29.4,46.2,28.1,45,27.4"/>
			<path class="st4" d="M14.8,15.8c-0.1,0.3-0.1,0.7-0.1,1v28.1c0,0.4,0,0.7,0.1,1l15.5-15.5L14.8,15.8z"/>
			<path class="st5" d="M29.9,30.9l7.8-7.8l-16.8-9.8c-0.6-0.4-1.3-0.6-2.1-0.6c-1.9,0-3.5,1.3-3.9,3l0,0L29.9,30.9z"/>
		</g>
		<g>
			<path d="M59.5,12.5h2.8c0.9,0,1.7,0.2,2.4,0.6c0.7,0.4,1.2,0.9,1.6,1.5c0.4,0.7,0.5,1.4,0.5,2.3s-0.2,1.6-0.5,2.3
				c-0.4,0.7-0.9,1.2-1.6,1.5c-0.7,0.4-1.5,0.6-2.4,0.6h-2.8C59.5,21.3,59.5,12.5,59.5,12.5z M62.2,20c1,0,1.8-0.3,2.3-0.8
				c0.6-0.6,0.8-1.3,0.8-2.3s-0.3-1.7-0.8-2.3c-0.6-0.6-1.3-0.8-2.3-0.8h-1.4V20H62.2z"/>
			<path d="M68.5,12.5h1.3v8.8h-1.3V12.5z"/>
			<path d="M72.7,20.8c-0.6-0.4-1-1-1.2-1.8l1.3-0.5c0.1,0.5,0.4,0.9,0.7,1.2c0.3,0.3,0.7,0.5,1.2,0.5c0.4,0,0.8-0.1,1.1-0.3
				c0.3-0.2,0.5-0.5,0.5-0.9s-0.1-0.7-0.4-0.9c-0.3-0.2-0.7-0.5-1.4-0.7l-0.6-0.2c-0.6-0.2-1.1-0.5-1.5-0.9s-0.6-0.9-0.6-1.5
				c0-0.4,0.1-0.8,0.3-1.2c0.2-0.4,0.6-0.7,1-0.9s0.9-0.3,1.4-0.3c0.8,0,1.4,0.2,1.8,0.6c0.5,0.4,0.8,0.8,0.9,1.3L76,14.8
				c-0.1-0.3-0.3-0.5-0.5-0.8c-0.3-0.2-0.6-0.3-1-0.3s-0.7,0.1-1,0.3s-0.4,0.5-0.4,0.8s0.1,0.6,0.4,0.8c0.2,0.2,0.6,0.4,1.2,0.6
				l0.6,0.2c0.8,0.3,1.3,0.6,1.7,1c0.4,0.4,0.6,1,0.6,1.7c0,0.6-0.1,1.1-0.4,1.4c-0.3,0.4-0.7,0.7-1.1,0.9c-0.5,0.2-0.9,0.3-1.4,0.3
				C73.9,21.4,73.2,21.2,72.7,20.8z"/>
			<path d="M79.3,12.5h3c0.5,0,1,0.1,1.4,0.3s0.8,0.5,1,1c0.3,0.4,0.4,0.9,0.4,1.4s-0.1,1-0.4,1.4s-0.6,0.7-1,1
				c-0.4,0.2-0.9,0.3-1.4,0.3h-1.7v3.4h-1.3V12.5z M82.4,16.6c0.4,0,0.8-0.1,1.1-0.4c0.3-0.3,0.4-0.6,0.4-1s-0.1-0.7-0.4-1
				s-0.6-0.4-1.1-0.4h-1.7v2.8H82.4z"/>
			<path d="M88.6,20.8c-0.7-0.4-1.2-1-1.6-1.7s-0.6-1.5-0.6-2.3c0-0.8,0.2-1.6,0.6-2.3s0.9-1.3,1.6-1.7s1.5-0.6,2.3-0.6
				s1.6,0.2,2.3,0.6c0.7,0.4,1.2,1,1.6,1.7s0.6,1.5,0.6,2.3c0,0.8-0.2,1.6-0.6,2.3c-0.4,0.7-0.9,1.3-1.6,1.7
				c-0.7,0.4-1.5,0.6-2.3,0.6C90,21.4,89.3,21.2,88.6,20.8z M92.5,19.7c0.5-0.3,0.9-0.7,1.2-1.2c0.3-0.5,0.4-1.1,0.4-1.7
				s-0.1-1.2-0.4-1.7s-0.7-0.9-1.2-1.2s-1-0.4-1.6-0.4s-1.1,0.1-1.6,0.4c-0.5,0.3-0.9,0.7-1.2,1.2c-0.3,0.5-0.4,1.1-0.4,1.7
				s0.1,1.2,0.4,1.7s0.7,0.9,1.2,1.2c0.5,0.3,1,0.4,1.6,0.4C91.5,20.2,92,20,92.5,19.7z"/>
			<path d="M97.1,12.5h1.6l4,6.4h0.1l-0.1-1.7v-4.8h1.3v8.8h-1.4l-4.2-6.8h-0.1l0.1,1.7v5.1h-1.3V12.5z"/>
			<path d="M106.3,12.5h1.3v8.8h-1.3V12.5z"/>
			<path d="M109.8,12.5h3.3c0.5,0,0.9,0.1,1.3,0.3s0.7,0.5,0.9,0.8c0.2,0.4,0.3,0.7,0.3,1.2c0,0.4-0.1,0.8-0.3,1.1
				c-0.2,0.3-0.5,0.6-0.9,0.7v0.1c0.5,0.2,0.8,0.4,1.1,0.8c0.3,0.4,0.4,0.8,0.4,1.3s-0.1,0.9-0.4,1.3c-0.2,0.4-0.6,0.7-1,0.9
				c-0.4,0.2-0.9,0.3-1.4,0.3h-3.4L109.8,12.5L109.8,12.5z M113,16.1c0.4,0,0.7-0.1,1-0.4c0.2-0.2,0.4-0.5,0.4-0.9
				c0-0.3-0.1-0.6-0.4-0.9c-0.2-0.2-0.6-0.4-0.9-0.4h-1.9v2.4h1.8V16.1z M113.2,20c0.4,0,0.8-0.1,1-0.4c0.3-0.3,0.4-0.6,0.4-0.9
				s-0.1-0.7-0.4-0.9c-0.3-0.3-0.6-0.4-1.1-0.4h-2V20H113.2z"/>
			<path d="M117.8,12.5h1.3V20h3.8v1.3h-5.1C117.8,21.3,117.8,12.5,117.8,12.5z"/>
			<path d="M124.3,12.5h5.3v1.3h-4v2.5h3.6v1.3h-3.6V20h4v1.3h-5.3V12.5z"/>
			<path d="M134.7,20.8c-0.6-0.4-1-1-1.2-1.8l1.3-0.5c0.1,0.5,0.4,0.9,0.7,1.2c0.3,0.3,0.7,0.5,1.2,0.5c0.4,0,0.8-0.1,1.1-0.3
				c0.3-0.2,0.5-0.5,0.5-0.9s-0.1-0.7-0.4-0.9c-0.3-0.2-0.7-0.5-1.4-0.7l-0.6-0.2c-0.6-0.2-1.1-0.5-1.5-0.9s-0.6-0.9-0.6-1.5
				c0-0.4,0.1-0.8,0.3-1.2s0.6-0.7,1-0.9s0.9-0.3,1.4-0.3c0.8,0,1.4,0.2,1.8,0.6c0.5,0.4,0.8,0.8,0.9,1.3l-1.2,0.5
				c-0.1-0.3-0.3-0.5-0.5-0.8c-0.3-0.2-0.6-0.3-1-0.3s-0.7,0.1-1,0.3s-0.4,0.5-0.4,0.8s0.1,0.6,0.4,0.8c0.2,0.2,0.6,0.4,1.2,0.6
				l0.6,0.2c0.8,0.3,1.3,0.6,1.7,1s0.6,1,0.6,1.7c0,0.6-0.1,1.1-0.4,1.4c-0.3,0.4-0.7,0.7-1.1,0.9c-0.5,0.2-0.9,0.3-1.4,0.3
				C136,21.4,135.3,21.2,134.7,20.8z"/>
			<path d="M142.8,21c-0.5-0.3-0.9-0.7-1.2-1.2s-0.4-1.2-0.4-1.9v-5.4h1.3V18c0,0.7,0.2,1.2,0.5,1.6s0.8,0.6,1.5,0.6
				c0.6,0,1.1-0.2,1.5-0.6c0.3-0.4,0.5-0.9,0.5-1.6v-5.5h1.3v5.4c0,0.7-0.1,1.3-0.4,1.9c-0.3,0.5-0.7,1-1.2,1.3s-1.1,0.4-1.8,0.4
				C143.9,21.4,143.3,21.3,142.8,21z"/>
			<path d="M149.9,12.5h3.1c0.5,0,1,0.1,1.4,0.3s0.8,0.5,1,1c0.2,0.4,0.4,0.9,0.4,1.4c0,0.6-0.2,1.1-0.6,1.6
				c-0.4,0.5-0.9,0.8-1.4,0.9v0.1l2.4,3.5v0.1h-1.6l-2.3-3.4h-1.1v3.4h-1.3L149.9,12.5L149.9,12.5z M153,16.6c0.4,0,0.8-0.1,1.1-0.4
				c0.3-0.3,0.4-0.6,0.4-1s-0.1-0.7-0.4-1c-0.3-0.3-0.6-0.4-1.1-0.4h-1.7v2.8H153z"/>
		</g>
	</g>
</g>
</svg>
